<?xml version="1.0" encoding="UTF-8" standalone="no"?>
<!-- Generator: Adobe Illustrator 15.0.0, SVG Export Plug-In . SVG Version: 6.00 Build 0)  -->

<svg
   xmlns:dc="http://purl.org/dc/elements/1.1/"
   xmlns:cc="http://creativecommons.org/ns#"
   xmlns:rdf="http://www.w3.org/1999/02/22-rdf-syntax-ns#"
   xmlns:svg="http://www.w3.org/2000/svg"
   xmlns="http://www.w3.org/2000/svg"
   xmlns:sodipodi="http://sodipodi.sourceforge.net/DTD/sodipodi-0.dtd"
   xmlns:inkscape="http://www.inkscape.org/namespaces/inkscape"
   version="1.1"
   id="Capa_1"
   x="0px"
   y="0px"
   width="64"
   height="64"
   viewBox="0 0 64.000003 63.999999"
   enable-background="new 0 0 82.895 82.122"
   xml:space="preserve"
   inkscape:version="0.48.5 r10040"
   sodipodi:docname="ic_action_remove.svg"
   inkscape:export-filename="/Users/rromerogar/Devel/EOB/plugins/org.apache.cordova.inappbrowser/src/android/res/drawable-xxhdpi/ic_action_remove.png"
   inkscape:export-xdpi="135"
   inkscape:export-ydpi="135"><metadata
     id="metadata3103"><rdf:RDF><cc:Work
         rdf:about=""><dc:format>image/svg+xml</dc:format><dc:type
           rdf:resource="http://purl.org/dc/dcmitype/StillImage" /><dc:title></dc:title></cc:Work></rdf:RDF></metadata><defs
     id="defs3101" /><sodipodi:namedview
     pagecolor="#ffffff"
     bordercolor="#666666"
     borderopacity="1"
     objecttolerance="10"
     gridtolerance="10"
     guidetolerance="10"
     inkscape:pageopacity="0"
     inkscape:pageshadow="2"
     inkscape:window-width="1920"
     inkscape:window-height="1031"
     id="namedview3099"
     showgrid="false"
     inkscape:zoom="2.8737731"
     inkscape:cx="-74.776013"
     inkscape:cy="43.148849"
     inkscape:window-x="0"
     inkscape:window-y="0"
     inkscape:window-maximized="1"
     inkscape:current-layer="Capa_1" /><g
     id="g3807"><rect
       y="10.847306"
       x="7.951231"
       height="42.727619"
       width="46.026691"
       id="rect3874"
       style="fill:#ffffff;fill-opacity:1;stroke-width:0.2;stroke-miterlimit:4;stroke-dasharray:none" /><path
       inkscape:export-ydpi="67.889999"
       inkscape:export-xdpi="67.889999"
       inkscape:export-filename="/home/INTERNA/rromerogar/Devel/CVAPP/plugins/org.apache.cordova.inappbrowser/src/android/res/drawable-hdpi/ic_action_remove.png"
       d="m 32.000501,0.1834995 c -17.571999,0 -31.8169995,14.2449995 -31.8169995,31.8170005 0,17.571999 14.2449995,31.815999 31.8169995,31.815999 17.571001,0 31.816,-14.244 31.816,-31.816 0,-17.571999 -14.243999,-31.8169995 -31.816,-31.8169995 z m 15.348,42.3189995 -4.848,4.848 c -0.815,0.816 -2.146,0.816 -2.962,-0.002 l -7.54,-7.539001 -7.536,7.539001 c -0.818,0.817999 -2.148,0.817999 -2.965,0 l -4.845,-4.846001 c -0.813999,-0.819999 -0.813999,-2.146 0,-2.962999 l 7.539,-7.539 -7.540999,-7.540001 c -0.815,-0.817 -0.815,-2.146 -0.001,-2.961 l 4.847,-4.847 c 0.818001,-0.817 2.148001,-0.817 2.965001,0 l 7.536,7.539 7.54,-7.539 c 0.819,-0.819 2.146,-0.819 2.966,0 l 4.845,4.846 c 0.816,0.817 0.816,2.146 0,2.963 l -7.538,7.539 7.539,7.539 c 0.816,0.817 0.816,2.147 -10e-4,2.963 z"
       id="path3097"
       style="fill:#b01c2c;fill-opacity:1;stroke-width:0.20000000000000001;stroke-miterlimit:4;stroke-dasharray:none"
       inkscape:connector-curvature="0" /></g></svg>